<?xml version="1.0" encoding="utf-8"?>
<!-- Generator: Adobe Illustrator 14.0.0, SVG Export Plug-In  -->
<!DOCTYPE svg PUBLIC "-//W3C//DTD SVG 1.1//EN" "http://www.w3.org/Graphics/SVG/1.1/DTD/svg11.dtd" [
	<!ENTITY ns_flows "http://ns.adobe.com/Flows/1.0/">
]>
<svg version="1.1"
	 xmlns="http://www.w3.org/2000/svg" xmlns:xlink="http://www.w3.org/1999/xlink" xmlns:a="http://ns.adobe.com/AdobeSVGViewerExtensions/3.0/"
	 x="0px" y="0px" width="353px" height="95px" viewBox="0 0 353 95" enable-background="new 0 0 353 95" xml:space="preserve">
<defs>
</defs>
<path fill="#008A96" d="M298.276,26.245h-18.202c-1.347,0-1.909,0.561-1.909,1.908v31.852c0,6.056,0.225,7.851,1.234,9.646
	c1.124,1.908,3.597,3.252,6.183,3.252c2.358,0,4.606-1.121,5.729-3.025c1.35-1.908,1.574-2.805,1.911-7.294
	c0.112-1.12,0.901-1.904,1.911-1.904c1.348,0,2.02,0.896,2.02,2.691c0,7.627-4.941,13.009-12.021,13.009
	c-4.158,0-7.64-1.791-9.325-4.82c-1.461-2.693-2.022-5.72-2.022-11.554V28.153c0-1.348-0.562-1.908-1.912-1.908h-6.854
	c-1.236,0-2.021-0.674-2.021-1.683c0-1.008,0.784-1.682,2.021-1.682h6.854c1.35,0,1.912-0.562,1.912-1.908v-8.41
	c0-1.683,0.785-2.693,2.246-2.693c1.35,0,2.136,1.011,2.136,2.693v8.41c0,1.347,0.562,1.908,1.909,1.908h32.024
	c1.349,0,2.138,0.674,2.138,1.682c0,1.122-0.789,1.683-2.138,1.683h-4.943c-1.123,0-1.912,0.561-1.912,1.456
	c0,0.227,0.111,0.674,0.341,1.122l16.517,37.35c0.448,0.788,0.785,1.683,1.686,4.151l0.786-1.907
	c0.225-0.674,0.562-1.345,0.785-1.904l16.182-37.8c0.226-0.338,0.339-0.785,0.339-1.012c0-0.896-0.788-1.456-2.023-1.456h-5.057
	c-1.235,0-2.021-0.674-2.021-1.683c0-1.008,0.786-1.682,2.021-1.682h16.181c1.237,0,2.021,0.561,2.021,1.682
	c0,1.122-0.784,1.683-2.021,1.683h-2.585c-1.124,0-1.46,0.226-1.909,1.234l-24.049,55.406C318.278,92.418,315.246,95,308.054,95
	c-4.045,0-6.629-1.008-6.629-2.582c0-1.008,0.786-1.791,1.685-1.791c0.338,0,0.338,0,2.361,0.447
	c0.786,0.224,1.572,0.336,2.583,0.336c4.604,0,7.416-2.356,10.002-8.524l2.921-6.954c0.113-0.335,0.224-0.674,0.224-0.896
	c0-0.338-0.11-0.672-0.224-1.012l-20.676-46.544C299.739,26.471,299.401,26.245,298.276,26.245 M258.055,6.842
	c0,2.017-1.8,3.812-3.936,3.812c-2.247,0-4.045-1.796-4.045-3.926s1.687-3.812,3.934-3.812S258.055,4.599,258.055,6.842
	L258.055,6.842z M263.559,71.445c1.236,0,2.022,0.562,2.022,1.682c0,1.122-0.786,1.684-2.022,1.684h-18.878
	c-1.35,0-2.133-0.674-2.133-1.684c0-1.008,0.783-1.682,2.019-1.682h5.731c1.351,0,1.912-0.561,1.912-1.906V28.153
	c0-1.348-0.562-1.908-1.912-1.908h-5.731c-1.235,0-2.019-0.674-2.019-1.683c0-1.008,0.783-1.682,2.019-1.682h9.891
	c1.572,0,2.134,0.561,2.134,2.13v44.528c0,1.346,0.562,1.906,1.911,1.906H263.559L263.559,71.445z M232.993,25.236
	c0-1.459,0.675-2.355,1.912-2.355c1.124,0,1.796,0.896,1.796,2.355v14.915c0,1.459-0.672,2.354-1.909,2.354
	c-1.235,0-1.91-0.782-2.136-2.803c-1.012-9.194-7.527-14.918-17.08-14.918c-5.955,0-10.786,2.134-14.27,6.172
	c-3.596,4.26-5.845,10.988-5.845,17.721c0,7.851,2.809,15.479,7.081,19.625c3.258,3.03,7.753,4.6,13.146,4.6
	c8.54,0,15.619-5.27,16.629-12.336c0.338-2.691,1.014-3.59,2.36-3.59c1.236,0,2.134,0.898,2.134,2.13
	c0,3.255-2.47,8.301-5.843,11.891c-3.145,3.252-9.102,5.382-15.394,5.382c-15.281,0-24.721-10.54-24.721-27.479
	c0-16.709,9.44-27.59,24.16-27.59c8.54,0,15.17,4.039,17.979,10.881V25.236L232.993,25.236z M138.549,48.678
	c0,14.805,8.089,24.225,20.563,24.225c12.81,0,20.897-9.084,20.897-23.555c0-8.072-2.02-14.353-5.842-18.504
	c-3.708-3.925-8.652-6.059-14.271-6.059C146.751,24.785,138.549,33.983,138.549,48.678L138.549,48.678z M184.618,49.013
	c0,16.487-9.999,27.366-25.056,27.366c-15.732,0-25.62-11.102-25.62-28.601c0-15.7,10.449-26.468,25.732-26.468
	C175.069,21.311,184.618,31.854,184.618,49.013L184.618,49.013z M132.82,71.445c1.234,0,2.021,0.674,2.021,1.682
	c0,1.01-0.787,1.684-2.021,1.684h-19.665c-1.236,0-2.024-0.674-2.024-1.684c0-1.008,0.788-1.682,2.024-1.682h5.955
	c1.348,0,1.91-0.561,1.91-1.906V5.271c0-1.347-0.562-1.907-1.91-1.907h-5.955c-1.236,0-2.024-0.674-2.024-1.683
	c0-1.121,0.788-1.682,2.024-1.682h10.111c1.574,0,2.136,0.561,2.136,2.13v67.409c0,1.346,0.562,1.906,1.909,1.906H132.82
	L132.82,71.445z M105.288,46.096c1.349,0,1.798-0.56,1.798-2.016c0-5.16-2.473-10.769-6.518-14.583
	c-3.371-3.14-7.752-4.712-13.258-4.712c-7.417,0-13.371,3.254-16.518,8.862c-1.91,3.59-3.258,8.076-3.258,10.767
	c0,1.122,0.562,1.682,1.798,1.682H105.288L105.288,46.096z M69.218,49.461c-1.46,0-1.911,0.561-1.911,2.243
	c0,6.171,2.473,12.227,6.743,16.151c3.483,3.256,8.652,5.047,14.72,5.047c9.214,0,15.394-4.373,17.753-12.672
	c0.449-1.572,1.011-2.133,2.022-2.133c1.125,0,2.023,0.898,2.023,2.021c0,2.69-2.584,7.289-5.73,10.654
	c-3.597,3.477-9.776,5.606-16.856,5.606c-15.842,0-25.282-10.206-25.282-27.366c0-17.159,9.327-27.702,24.721-27.702
	c8.652,0,14.944,2.916,19.329,8.747c2.809,3.926,5.055,11.44,5.055,16.938c0,1.792-0.562,2.465-2.135,2.465H69.218L69.218,49.461z
	 M41.912,71.894c-0.673,2.021-1.91,3.142-3.257,3.142h-2.134c-1.463,0-2.36-0.898-3.148-3.142L7.754,5.047
	C7.304,3.925,6.967,3.7,5.844,3.7H2.247C0.788,3.7,0,3.027,0,1.795C0,0.672,0.788,0,2.247,0h20.675c1.35,0,2.135,0.672,2.135,1.906
	c0,1.121-0.786,1.794-2.135,1.794h-7.978c-1.124,0-1.91,0.56-1.91,1.46c0,0.334,0,0.671,0.224,1.008l18.315,47.219
	c5.619,16.377,5.619,16.377,5.73,16.603c0.113,0.222,0.226,0.335,0.562,0.335c0.45,0,0.674-0.226,0.9-0.785
	c0.898-2.578,1.348-4.039,5.842-16.152L62.587,6.168c0.226-0.337,0.226-0.674,0.226-1.008c0-0.9-0.787-1.46-1.912-1.46h-7.751
	c-1.463,0-2.248-0.673-2.248-1.905C50.903,0.672,51.688,0,53.151,0h20.675c1.459,0,2.248,0.672,2.248,1.906
	c0,1.121-0.788,1.794-2.248,1.794h-4.158c-1.123,0-1.572,0.225-1.911,1.347L41.912,71.894L41.912,71.894z"/>
</svg>
